<svg width="101" height="221" viewBox="0 0 101 221" fill="none" xmlns="http://www.w3.org/2000/svg">
<path d="M15.4923 205.48C-3.99743 185.99 -3.99743 154.281 15.4923 134.792C34.982 115.302 66.6907 115.302 86.1804 134.792C105.67 154.281 105.67 185.99 86.1804 205.48C66.6907 224.97 34.982 224.97 15.4923 205.48ZM83.8248 137.147C65.6338 118.956 36.039 118.956 17.8527 137.147C-0.338378 155.338 -0.338378 184.933 17.8527 203.119C36.0437 221.31 65.6385 221.31 83.8248 203.119C102.016 184.928 102.016 155.334 83.8248 137.147Z" fill="#DA7DB5"/>
<path d="M84.364 159.533C84.1887 159.358 84.0465 159.135 83.9659 158.888C82.2359 153.769 79.411 149.234 75.5718 145.394C71.7374 141.56 67.1968 138.735 62.0779 137C61.4001 136.768 60.9451 136.138 60.9451 135.422V123.274C60.9451 122.762 61.182 122.279 61.5849 121.961C61.9925 121.644 62.5186 121.535 63.0116 121.658C71.7611 123.848 79.7712 128.388 86.1698 134.792C92.5685 141.195 97.1091 149.2 99.2989 157.95C99.4221 158.448 99.3084 158.974 98.9955 159.381C98.678 159.789 98.1945 160.021 97.6826 160.021H85.5347C85.0797 160.021 84.6626 159.836 84.3545 159.528L84.364 159.533ZM77.9275 143.039C81.8425 146.954 84.7953 151.542 86.7197 156.689H95.5071C93.2984 149.333 89.2839 142.612 83.819 137.147C78.3541 131.682 71.6332 127.668 64.2818 125.464V134.251C69.4292 136.171 74.0172 139.124 77.9322 143.043L77.9275 143.039Z" fill="#DA7DB5"/>
<path d="M15.4909 205.48C9.09225 199.081 4.54685 191.071 2.3571 182.321C2.23386 181.824 2.34762 181.298 2.66045 180.895C2.97801 180.487 3.46144 180.255 3.97333 180.255H16.1212C16.8369 180.255 17.4721 180.71 17.6996 181.388C19.4296 186.507 22.2544 191.043 26.0936 194.882C29.928 198.716 34.4687 201.541 39.5876 203.276C40.2654 203.503 40.7204 204.138 40.7204 204.854V217.002C40.7204 217.514 40.4834 217.997 40.0805 218.315C39.6729 218.632 39.1468 218.741 38.6491 218.618C29.8996 216.428 21.8942 211.888 15.4909 205.489V205.48ZM6.15836 183.582C8.36707 190.938 12.3816 197.659 17.8465 203.124C23.3114 208.589 30.0323 212.603 37.3884 214.812V206.025C32.241 204.105 27.653 201.152 23.738 197.237C19.823 193.322 16.8701 188.734 14.9458 183.587H6.15836V183.582Z" fill="#DA7DB5"/>
<path d="M61.4411 218.173C61.1283 217.86 60.9529 217.438 60.9529 216.993V204.845C60.9529 204.129 61.4079 203.494 62.0857 203.266C67.2046 201.536 71.7405 198.712 75.5796 194.872C79.4188 191.033 82.2389 186.497 83.9737 181.378C84.2012 180.701 84.8363 180.246 85.552 180.246H97.6999C98.2118 180.246 98.6953 180.483 99.0128 180.885C99.3304 181.288 99.4394 181.819 99.3162 182.312C97.1217 191.062 92.581 199.067 86.1824 205.47C79.7838 211.874 71.7737 216.414 63.0241 218.604C62.5265 218.727 62.0004 218.614 61.5975 218.301C61.5453 218.253 61.4932 218.211 61.4458 218.163L61.4411 218.173ZM64.2849 206.02V214.808C71.641 212.599 78.3619 208.584 83.8268 203.119C89.2917 197.655 93.3015 190.934 95.5149 183.578H86.7275C84.8079 188.725 81.855 193.308 77.9353 197.228C74.0203 201.143 69.4323 204.101 64.2849 206.02Z" fill="#DA7DB5"/>
<path d="M2.79389 159.533C2.74649 159.486 2.69911 159.433 2.66119 159.381C2.34363 158.978 2.23461 158.448 2.35784 157.95C4.54759 149.2 9.08825 141.19 15.4916 134.792C21.895 128.393 29.9003 123.848 38.6498 121.658C39.1475 121.535 39.6736 121.648 40.0765 121.961C40.4794 122.279 40.7164 122.762 40.7164 123.274V135.422C40.7164 136.138 40.2614 136.773 39.5836 137C34.4647 138.73 29.9288 141.555 26.0896 145.394C22.2552 149.229 19.4303 153.769 17.6956 158.888C17.4681 159.566 16.833 160.021 16.1173 160.021H3.96936C3.52382 160.021 3.09723 159.846 2.78914 159.538L2.79389 159.533ZM37.3844 125.464C30.0283 127.673 23.3074 131.687 17.8425 137.152C12.3776 142.617 8.36781 149.338 6.15436 156.694H14.9418C16.8614 151.547 19.8142 146.963 23.734 143.043C27.649 139.128 32.237 136.176 37.3844 134.251V125.464Z" fill="#DA7DB5"/>
<path d="M77.9316 143.039C62.9921 128.099 38.6773 128.094 23.7377 143.039C8.79339 157.983 8.79813 182.293 23.7377 197.233C38.6773 212.172 62.9873 212.177 77.9316 197.233C92.876 182.288 92.8712 157.978 77.9316 143.039Z" fill="#DA7DB5"/>
<path d="M64.6544 183.813L37.1268 183.996C35.9672 184.004 35.0333 184.95 35.041 186.109L35.0475 187.091C35.0552 188.25 36.0015 189.184 37.1611 189.176L64.6888 188.994C65.8484 188.986 66.7822 188.04 66.7745 186.88L66.768 185.899C66.7603 184.739 65.814 183.806 64.6544 183.813Z" fill="#191D0A"/>
<path d="M40.8773 167.197C40.5787 167.197 40.2754 167.131 40.0005 166.998L37.8534 165.96C36.9197 165.505 36.4931 164.401 36.8817 163.439L37.8676 160.984C38.171 160.235 38.8867 159.746 39.6924 159.742C40.0384 159.742 40.3797 159.827 40.683 160.002L43.2425 161.462C43.7212 161.732 44.0672 162.202 44.1904 162.742C44.3136 163.282 44.2046 163.851 43.8918 164.306L42.4889 166.339C42.1239 166.87 41.5172 167.193 40.8726 167.193L40.8773 167.197Z" fill="#191D0A"/>
<path d="M60.6922 167.065C60.0476 167.065 59.4362 166.756 59.0665 166.23L57.6777 164.273C57.3554 163.823 57.2417 163.254 57.3555 162.713C57.4692 162.173 57.8105 161.699 58.2892 161.42L60.9292 159.87C61.2278 159.694 61.5691 159.6 61.9151 159.595C62.7208 159.59 63.446 160.069 63.7588 160.813L64.7542 163.197C65.1523 164.154 64.7399 165.268 63.8157 165.733L61.5691 166.856C61.2989 166.989 60.9955 167.065 60.6969 167.065H60.6922Z" fill="#191D0A"/>
<path d="M38.7148 182.156C37.5061 182.165 36.4208 181.407 36.0084 180.269L31.4156 167.628C31.1218 167.771 30.8089 167.88 30.4914 167.96C30.1169 168.055 29.7377 168.102 29.3538 168.102C29.1311 168.102 28.913 168.093 28.6997 168.064C26.3062 167.761 24.4909 165.709 24.4767 163.292C24.4577 160.618 26.619 158.429 29.2922 158.41C31.9654 158.391 34.1552 160.552 34.1694 163.225C34.1694 163.841 34.0651 164.434 33.8471 164.988C33.7286 165.292 33.5817 165.581 33.411 165.856L42.1463 170.084L48.8294 160.4C48.5497 160.282 48.2795 160.135 48.0236 159.96C47.5401 159.633 47.1183 159.225 46.777 158.746C46.1988 157.931 45.886 156.969 45.8812 155.973C45.8623 153.3 48.0236 151.111 50.6968 151.092C50.8153 151.092 50.9385 151.092 51.057 151.101C53.4506 151.262 55.3844 153.182 55.5597 155.575C55.6403 156.708 55.3417 157.794 54.6971 158.718C54.3559 159.201 53.9387 159.614 53.46 159.941C53.2088 160.116 52.9387 160.263 52.659 160.381L59.4605 169.965L68.0536 165.666C67.8925 165.358 67.7645 165.036 67.6697 164.699C67.556 164.292 67.4944 163.865 67.4944 163.434C67.4944 163.239 67.5038 163.045 67.5228 162.856C67.7977 160.419 69.8547 158.571 72.3051 158.557C74.9783 158.538 77.1681 160.699 77.1823 163.372C77.2013 165.922 75.2201 168.064 72.6749 168.24L72.3715 168.249C71.8786 168.249 71.3952 168.183 70.9259 168.041C70.6226 167.946 70.3287 167.827 70.0538 167.676L65.7406 180.07C65.3473 181.212 64.2666 181.98 63.0579 181.99L38.7148 182.151V182.156Z" fill="#191D0A"/>
<path d="M1.02096 51.1624C1.02096 52.1833 1.82964 53 2.81683 53C3.80401 53 4.61269 52.1725 4.61269 51.1624C4.61269 24.9848 25.4276 3.68592 51.0105 3.68592C76.5934 3.68592 97.4083 24.9848 97.4083 51.1624C97.4083 52.1833 98.217 53 99.2042 53C100.191 53 101 52.1725 101 51.1624C101 22.9538 78.5677 -2.11529e-06 51 -2.11529e-06C23.4323 -2.11529e-06 1 22.9538 1 51.1624H1.02096Z" fill="#DA7DB5"/>
<path d="M1 49.6145V171.191C1 172.196 1.80836 173 2.79516 173C3.78196 173 4.59031 172.185 4.59031 171.191V49.6145C4.59031 48.6093 3.78196 47.8051 2.79516 47.8051C1.80836 47.8051 1 48.6199 1 49.6145Z" fill="#DA7DB5"/>
<path d="M97.3699 49.3391V170.915C97.3699 171.92 98.1782 172.725 99.165 172.725C100.152 172.725 100.96 171.91 100.96 170.915V49.3391C100.96 48.3339 100.152 47.5297 99.165 47.5297C98.1782 47.5297 97.3699 48.3445 97.3699 49.3391Z" fill="#DA7DB5"/>
</svg>
